<mxfile host="app.diagrams.net" modified="2021-03-10T22:17:19.979Z" agent="5.0 (Windows NT 10.0; Win64; x64) AppleWebKit/537.36 (KHTML, like Gecko) Chrome/88.0.4324.190 Safari/537.36" etag="XaVPPZ_YKc5ePsUCcT9B" version="14.4.6" type="github">
  <diagram name="Page-1" id="12e1b939-464a-85fe-373e-61e167be1490">
    <mxGraphModel dx="2944" dy="1536" grid="1" gridSize="10" guides="1" tooltips="1" connect="1" arrows="1" fold="1" page="1" pageScale="1.5" pageWidth="1169" pageHeight="826" background="#ffffff" math="0" shadow="0">
      <root>
        <mxCell id="0" />
        <mxCell id="1" parent="0" />
        <mxCell id="60da8b9f42644d3a-2" value="" style="whiteSpace=wrap;html=1;rounded=1;shadow=0;strokeWidth=8;fontSize=20;align=center;strokeColor=#FFFFFF;arcSize=3;fillColor=#FFD966;" parent="1" vertex="1">
          <mxGeometry x="50" y="40" width="1660" height="1160" as="geometry" />
        </mxCell>
        <mxCell id="WR_IjdlO5KlaxCx397BE-1" value="戰略管理-2021Q1" style="text;html=1;strokeColor=none;fillColor=none;align=center;verticalAlign=middle;whiteSpace=wrap;rounded=0;shadow=0;fontSize=42;fontStyle=1;fontFamily=Noto Sans TC;fontSource=https%3A%2F%2Ffonts.googleapis.com%2Fcss%3Ffamily%3DNoto%2BSans%2BTC;fontColor=#333333;" vertex="1" parent="1">
          <mxGeometry x="40" y="70" width="440" height="60" as="geometry" />
        </mxCell>
        <mxCell id="WR_IjdlO5KlaxCx397BE-6" value="" style="group;fontFamily=Noto Sans TC;fontSource=https%3A%2F%2Ffonts.googleapis.com%2Fcss%3Ffamily%3DNoto%2BSans%2BTC;" vertex="1" connectable="0" parent="1">
          <mxGeometry x="1130" y="190" width="490" height="940" as="geometry" />
        </mxCell>
        <mxCell id="60da8b9f42644d3a-31" value="" style="whiteSpace=wrap;html=1;rounded=1;shadow=0;strokeWidth=8;fontSize=20;align=center;fillColor=#FE9900;strokeColor=#FFFFFF;imageHeight=24;arcSize=6;" parent="WR_IjdlO5KlaxCx397BE-6" vertex="1">
          <mxGeometry width="490" height="940" as="geometry" />
        </mxCell>
        <mxCell id="60da8b9f42644d3a-32" value="&lt;font style=&quot;font-size: 38px&quot;&gt;戰略執行&lt;/font&gt;" style="text;html=1;strokeColor=none;fillColor=none;align=center;verticalAlign=middle;whiteSpace=wrap;rounded=0;shadow=0;fontSize=27;fontColor=#FFFFFF;fontStyle=1" parent="WR_IjdlO5KlaxCx397BE-6" vertex="1">
          <mxGeometry x="105" y="20" width="280" height="60" as="geometry" />
        </mxCell>
        <mxCell id="60da8b9f42644d3a-33" value="Events&lt;div&gt;Social Inbox&lt;/div&gt;&lt;div&gt;Smart Content&lt;/div&gt;" style="text;html=1;strokeColor=none;fillColor=none;align=center;verticalAlign=middle;whiteSpace=wrap;rounded=0;shadow=0;fontSize=14;fontColor=#FFFFFF;" parent="WR_IjdlO5KlaxCx397BE-6" vertex="1">
          <mxGeometry y="320" width="280" height="90" as="geometry" />
        </mxCell>
        <mxCell id="60da8b9f42644d3a-34" value="" style="line;strokeWidth=2;html=1;rounded=0;shadow=0;fontSize=27;align=center;fillColor=none;strokeColor=#FFFFFF;" parent="WR_IjdlO5KlaxCx397BE-6" vertex="1">
          <mxGeometry x="20" y="80" width="450" height="10" as="geometry" />
        </mxCell>
        <mxCell id="60da8b9f42644d3a-35" value="" style="line;strokeWidth=2;html=1;rounded=0;shadow=0;fontSize=27;align=center;fillColor=none;strokeColor=#FFFFFF;" parent="WR_IjdlO5KlaxCx397BE-6" vertex="1">
          <mxGeometry x="20" y="300" width="240" height="10" as="geometry" />
        </mxCell>
        <mxCell id="60da8b9f42644d3a-37" value="" style="html=1;shadow=0;dashed=0;align=center;verticalAlign=middle;shape=mxgraph.arrows2.stylisedArrow;dy=0.6;dx=40;notch=15;feather=0.4;rounded=0;strokeWidth=1;fontSize=27;strokeColor=none;fillColor=#fff2cc;" parent="WR_IjdlO5KlaxCx397BE-6" vertex="1">
          <mxGeometry x="195" y="157.5" width="100" height="60" as="geometry" />
        </mxCell>
        <mxCell id="60da8b9f42644d3a-38" value="&lt;font face=&quot;Noto Sans TC&quot; data-font-src=&quot;https://fonts.googleapis.com/css?family=Noto+Sans+TC&quot; style=&quot;font-size: 37px&quot;&gt;3/31&lt;/font&gt;" style="ellipse;whiteSpace=wrap;html=1;rounded=0;shadow=0;strokeWidth=6;fontSize=14;align=center;fillColor=#BF639A;strokeColor=#FFFFFF;fontColor=#FFFFFF;" parent="WR_IjdlO5KlaxCx397BE-6" vertex="1">
          <mxGeometry x="430" y="130" width="115" height="115" as="geometry" />
        </mxCell>
        <mxCell id="WR_IjdlO5KlaxCx397BE-5" value="" style="group;fontFamily=Noto Sans TC;fontSource=https%3A%2F%2Ffonts.googleapis.com%2Fcss%3Ffamily%3DNoto%2BSans%2BTC;" vertex="1" connectable="0" parent="1">
          <mxGeometry x="640" y="190" width="490" height="940" as="geometry" />
        </mxCell>
        <mxCell id="60da8b9f42644d3a-24" value="" style="whiteSpace=wrap;html=1;rounded=1;shadow=0;strokeWidth=8;fontSize=20;align=center;fillColor=#FFB001;strokeColor=#FFFFFF;arcSize=6;" parent="WR_IjdlO5KlaxCx397BE-5" vertex="1">
          <mxGeometry width="490" height="940" as="geometry" />
        </mxCell>
        <mxCell id="60da8b9f42644d3a-25" value="&lt;font style=&quot;font-size: 38px&quot; face=&quot;Noto Sans TC&quot; data-font-src=&quot;https://fonts.googleapis.com/css?family=Noto+Sans+TC&quot; color=&quot;#1a1a1a&quot;&gt;戰略解碼&lt;/font&gt;" style="text;html=1;strokeColor=none;fillColor=none;align=center;verticalAlign=middle;whiteSpace=wrap;rounded=0;shadow=0;fontSize=27;fontStyle=1;fontColor=#FFD966;labelBorderColor=none;" parent="WR_IjdlO5KlaxCx397BE-5" vertex="1">
          <mxGeometry x="94" y="13" width="280" height="60" as="geometry" />
        </mxCell>
        <mxCell id="60da8b9f42644d3a-26" value="Email&lt;div&gt;Signals&lt;/div&gt;&lt;div&gt;Workflows&lt;/div&gt;" style="text;html=1;strokeColor=none;fillColor=none;align=center;verticalAlign=middle;whiteSpace=wrap;rounded=0;shadow=0;fontSize=14;fontColor=#FFFFFF;" parent="WR_IjdlO5KlaxCx397BE-5" vertex="1">
          <mxGeometry y="320" width="280" height="90" as="geometry" />
        </mxCell>
        <mxCell id="60da8b9f42644d3a-27" value="" style="line;strokeWidth=2;html=1;rounded=0;shadow=0;fontSize=27;align=center;fillColor=none;strokeColor=#FFFFFF;" parent="WR_IjdlO5KlaxCx397BE-5" vertex="1">
          <mxGeometry x="20" y="80" width="450" height="10" as="geometry" />
        </mxCell>
        <mxCell id="60da8b9f42644d3a-28" value="" style="line;strokeWidth=2;html=1;rounded=0;shadow=0;fontSize=27;align=center;fillColor=none;strokeColor=#FFFFFF;" parent="WR_IjdlO5KlaxCx397BE-5" vertex="1">
          <mxGeometry x="20" y="300" width="240" height="10" as="geometry" />
        </mxCell>
        <mxCell id="60da8b9f42644d3a-30" value="" style="html=1;shadow=0;dashed=0;align=center;verticalAlign=middle;shape=mxgraph.arrows2.stylisedArrow;dy=0.6;dx=40;notch=15;feather=0.4;rounded=0;strokeWidth=1;fontSize=27;strokeColor=none;fillColor=#fff2cc;" parent="WR_IjdlO5KlaxCx397BE-5" vertex="1">
          <mxGeometry x="195" y="157.5" width="100" height="60" as="geometry" />
        </mxCell>
        <mxCell id="60da8b9f42644d3a-36" value="&lt;font face=&quot;Noto Sans TC&quot; data-font-src=&quot;https://fonts.googleapis.com/css?family=Noto+Sans+TC&quot; style=&quot;font-size: 37px&quot;&gt;3/26&lt;/font&gt;" style="ellipse;whiteSpace=wrap;html=1;rounded=0;shadow=0;strokeWidth=6;fontSize=14;align=center;fillColor=#68B85C;strokeColor=#FFFFFF;fontColor=#FFFFFF;" parent="WR_IjdlO5KlaxCx397BE-5" vertex="1">
          <mxGeometry x="430" y="130" width="115" height="115" as="geometry" />
        </mxCell>
        <mxCell id="WR_IjdlO5KlaxCx397BE-4" value="" style="group" vertex="1" connectable="0" parent="1">
          <mxGeometry x="160" y="190" width="480" height="940" as="geometry" />
        </mxCell>
        <mxCell id="60da8b9f42644d3a-17" value="" style="whiteSpace=wrap;html=1;rounded=1;shadow=0;strokeWidth=8;fontSize=20;align=center;fillColor=#FFC001;strokeColor=#FFFFFF;arcSize=6;" parent="WR_IjdlO5KlaxCx397BE-4" vertex="1">
          <mxGeometry x="-10" width="490" height="940" as="geometry" />
        </mxCell>
        <mxCell id="60da8b9f42644d3a-18" value="戰略制定" style="text;html=1;strokeColor=none;fillColor=none;align=center;verticalAlign=middle;whiteSpace=wrap;rounded=0;shadow=0;fontSize=38;fontStyle=1;fontFamily=Noto Sans TC;fontSource=https%3A%2F%2Ffonts.googleapis.com%2Fcss%3Ffamily%3DNoto%2BSans%2BTC;fontColor=#666666;" parent="WR_IjdlO5KlaxCx397BE-4" vertex="1">
          <mxGeometry x="90" y="13" width="280" height="60" as="geometry" />
        </mxCell>
        <mxCell id="60da8b9f42644d3a-19" value="&lt;span&gt;&lt;font face=&quot;Noto Sans TC&quot; data-font-src=&quot;https://fonts.googleapis.com/css?family=Noto+Sans+TC&quot; style=&quot;font-size: 32px&quot;&gt;市場洞察&lt;/font&gt;&lt;/span&gt;" style="text;html=1;strokeColor=none;fillColor=none;align=center;verticalAlign=middle;whiteSpace=wrap;rounded=0;shadow=0;fontSize=14;fontColor=#FFFFFF;" parent="WR_IjdlO5KlaxCx397BE-4" vertex="1">
          <mxGeometry x="7" y="330" width="173" height="50" as="geometry" />
        </mxCell>
        <mxCell id="60da8b9f42644d3a-20" value="" style="line;strokeWidth=2;html=1;rounded=0;shadow=0;fontSize=27;align=center;fillColor=none;strokeColor=#FFFFFF;" parent="WR_IjdlO5KlaxCx397BE-4" vertex="1">
          <mxGeometry x="10" y="80" width="450" height="10" as="geometry" />
        </mxCell>
        <mxCell id="60da8b9f42644d3a-21" value="" style="line;strokeWidth=2;html=1;rounded=0;shadow=0;fontSize=27;align=center;fillColor=none;strokeColor=#FFFFFF;" parent="WR_IjdlO5KlaxCx397BE-4" vertex="1">
          <mxGeometry x="10" y="300" width="450" height="10" as="geometry" />
        </mxCell>
        <mxCell id="60da8b9f42644d3a-22" value="&lt;font face=&quot;Noto Sans TC&quot; data-font-src=&quot;https://fonts.googleapis.com/css?family=Noto+Sans+TC&quot; style=&quot;font-size: 37px&quot;&gt;3/12&lt;/font&gt;" style="ellipse;whiteSpace=wrap;html=1;rounded=0;shadow=0;strokeWidth=6;fontSize=14;align=center;fillColor=#397DAA;strokeColor=#FFFFFF;fontColor=#FFFFFF;" parent="WR_IjdlO5KlaxCx397BE-4" vertex="1">
          <mxGeometry x="-70" y="130" width="115" height="115" as="geometry" />
        </mxCell>
        <mxCell id="60da8b9f42644d3a-23" value="" style="html=1;shadow=0;dashed=0;align=center;verticalAlign=middle;shape=mxgraph.arrows2.stylisedArrow;dy=0.6;dx=40;notch=15;feather=0.4;rounded=0;strokeWidth=1;fontSize=27;strokeColor=none;fillColor=#fff2cc;" parent="WR_IjdlO5KlaxCx397BE-4" vertex="1">
          <mxGeometry x="180" y="157.5" width="100" height="60" as="geometry" />
        </mxCell>
        <mxCell id="60da8b9f42644d3a-29" value="&lt;font style=&quot;font-size: 37px&quot; face=&quot;Noto Sans TC&quot; data-font-src=&quot;https://fonts.googleapis.com/css?family=Noto+Sans+TC&quot;&gt;3/16&lt;/font&gt;" style="ellipse;whiteSpace=wrap;html=1;rounded=0;shadow=0;strokeWidth=6;fontSize=14;align=center;fillColor=#EF9353;strokeColor=#FFFFFF;fontColor=#FFFFFF;" parent="WR_IjdlO5KlaxCx397BE-4" vertex="1">
          <mxGeometry x="420" y="130" width="115" height="115" as="geometry" />
        </mxCell>
      </root>
    </mxGraphModel>
  </diagram>
</mxfile>
